<?xml version="1.0" encoding="utf-8"?>
<!-- Generator: Adobe Illustrator 16.0.0, SVG Export Plug-In . SVG Version: 6.00 Build 0)  -->
<!DOCTYPE svg PUBLIC "-//W3C//DTD SVG 1.1//EN" "http://www.w3.org/Graphics/SVG/1.1/DTD/svg11.dtd">
<svg version="1.1" id="Layer_1" xmlns="http://www.w3.org/2000/svg" xmlns:xlink="http://www.w3.org/1999/xlink" x="0px" y="0px"
	 width="170.804px" height="107.664px" viewBox="0 0 170.804 107.664" enable-background="new 0 0 170.804 107.664"
	 xml:space="preserve">
<g id="MfvZTt.tif">
	<g>
		<g id="UGe9uv.tif">
			<g>
				<path fill-rule="evenodd" clip-rule="evenodd" d="M170.804,60.089c-0.549,1.216-0.941,2.539-1.682,3.625
					c-1.457,2.138-3.681,2.943-6.208,2.998c-0.449,0.01-0.899,0.001-1.349,0.001c-31.656,0-63.312-0.002-94.968,0.006
					c-2.167,0-4.143-0.464-5.812-1.944c-1.062-0.941-1.768-2.089-2.213-3.417c-0.122-0.365-0.254-0.726-0.382-1.089
					c0-17.449,0-34.899,0-52.349c0.507-1.171,0.851-2.456,1.558-3.492c1.555-2.278,3.894-3.137,6.599-3.135
					c8.844,0.006,17.687,0.002,26.53,0.002c23.172,0,46.345,0.003,69.518-0.005c2.167,0,4.146,0.463,5.812,1.944
					c1.059,0.94,1.771,2.087,2.214,3.417c0.122,0.365,0.255,0.727,0.383,1.09C170.804,25.189,170.804,42.639,170.804,60.089z
					 M72.268,61.365c28.854,0,57.642,0,86.417,0c0-18.297,0-36.507,0-54.741c-28.843,0-57.61,0-86.417,0
					C72.268,24.886,72.268,43.078,72.268,61.365z M65.798,37.803c2.108,0,3.816-1.727,3.799-3.84
					c-0.017-2.067-1.72-3.754-3.792-3.759c-2.109-0.004-3.828,1.734-3.798,3.843C62.036,36.141,63.714,37.803,65.798,37.803z
					 M163.451,33.906c0,1.736,0,3.472,0,5.208c0,0.928-0.015,1.856,0.01,2.783c0.017,0.569,0.281,0.994,0.91,1.018
					c0.637,0.024,0.885-0.408,0.98-0.958c0.03-0.175,0.018-0.359,0.018-0.538c0-4.938,0.002-9.877-0.003-14.815
					c-0.001-0.295,0.027-0.656-0.125-0.868c-0.199-0.278-0.587-0.634-0.851-0.602c-0.323,0.04-0.661,0.404-0.879,0.709
					c-0.131,0.184-0.059,0.521-0.059,0.79C163.45,29.058,163.451,31.482,163.451,33.906z"/>
			</g>
		</g>
		<path fill-rule="evenodd" clip-rule="evenodd" fill="#FAB88C" d="M91.825,60.853c0,0,0.882,2.146,1.294,3.231
			c1.394,3.67,0.715,5.548-3.808,5.478c-16.169-0.253-32.015,1.845-47.465,6.854c-3.53,1.145-6.187,3.018-8.285,5.921
			c-3.872-4.095-7.634-8.286-10.841-12.94c5.96-3.413,6.929-9.805,9.055-15.434c3.467-9.182,6.824-18.411,9.943-27.715
			c1.245-3.714,3.986-6.062,6.402-8.771c2.769-3.105,6.118-5.847,8.243-9.339c4.335-7.124,10.457-8.757,18.186-7.948
			c5.114,0.535,10.322,0.165,15.488,0.218c6.035,0.062,6.803,3.669,3.935,7.178C89.603,12.761,78,11.25,78,11.25
			c-3.53,0.072-7.8-2.502-10.284-0.498c-2.676,2.16-3.411,6.642-5.199,10c-3.131,5.881-4.615,12.039-3.384,18.654
			c0.756,4.064,1.777,8.08,2.684,12.116c1.32,5.876,2.583,6.816,8.979,6.701c4.691-0.01,9.413-0.571,14.073-0.03L91.825,60.853z"/>
		<path fill-rule="evenodd" clip-rule="evenodd" fill="#20201E" d="M22.72,69.396c3.208,4.655,6.97,8.845,10.841,12.94
			c2.524,3.083,5.006,6.204,7.595,9.234c1.098,1.285,1.734,2.188,0.004,3.589c-4.655,3.77-9.22,7.657-13.708,11.625
			c-1.52,1.344-30.052,4.507-31.266,3.06c-7.592-9.056,6.406-4.237-1.333-13.167C-6.727,94.854-0.052,76.7,1.469,75.455
			c3.992-3.268,8.049-6.484,11.772-10.042c2.464-2.355,4.144-2.672,6.105,0.394C20.217,67.166,21.581,68.209,22.72,69.396z
			 M36.722,92.508c-0.369-1.498-1.132-2.962-3.091-3.061c-2.208-0.111-3.448,1.302-3.428,3.337c0.018,1.841,1.387,3.1,3.231,3.086
			C35.267,95.856,36.404,94.635,36.722,92.508z"/>
	</g>
</g>
</svg>
